<?xml version="1.0" encoding="UTF-8"?>
<svg id="Layer_2" data-name="Layer 2" xmlns="http://www.w3.org/2000/svg" viewBox="0 0 148 148">
  <defs>
    <style>
      .cls-1 {
        fill: #f8ca4d;
      }
    </style>
  </defs>
  <g id="Layer_1-2" data-name="Layer 1">
    <g>
      <circle class="cls-1" cx="74" cy="74" r="29.93" transform="translate(-25.31 40.99) rotate(-26.61)"/>
      <g>
        <path class="cls-1" d="M74,32.7h0c-1.98,0-3.59-1.61-3.59-3.59V3.59c0-1.98,1.61-3.59,3.59-3.59h0c1.98,0,3.59,1.61,3.59,3.59V29.11c0,1.98-1.61,3.59-3.59,3.59Z"/>
        <path class="cls-1" d="M74,148h0c-1.98,0-3.59-1.61-3.59-3.59v-25.53c0-1.98,1.61-3.59,3.59-3.59h0c1.98,0,3.59,1.61,3.59,3.59v25.53c0,1.98-1.61,3.59-3.59,3.59Z"/>
      </g>
      <g>
        <path class="cls-1" d="M103.2,44.8h0c-1.4-1.4-1.4-3.67,0-5.07l18.05-18.05c1.4-1.4,3.67-1.4,5.07,0h0c1.4,1.4,1.4,3.67,0,5.07l-18.05,18.05c-1.4,1.4-3.67,1.4-5.07,0Z"/>
        <path class="cls-1" d="M21.67,126.33h0c-1.4-1.4-1.4-3.67,0-5.07l18.05-18.05c1.4-1.4,3.67-1.4,5.07,0h0c1.4,1.4,1.4,3.67,0,5.07l-18.05,18.05c-1.4,1.4-3.67,1.4-5.07,0Z"/>
      </g>
      <g>
        <path class="cls-1" d="M115.3,74h0c0-1.98,1.61-3.59,3.59-3.59h25.53c1.98,0,3.59,1.61,3.59,3.59h0c0,1.98-1.61,3.59-3.59,3.59h-25.53c-1.98,0-3.59-1.61-3.59-3.59Z"/>
        <path class="cls-1" d="M0,74H0c0-1.98,1.61-3.59,3.59-3.59H29.11c1.98,0,3.59,1.61,3.59,3.59h0c0,1.98-1.61,3.59-3.59,3.59H3.59c-1.98,0-3.59-1.61-3.59-3.59Z"/>
      </g>
      <g>
        <path class="cls-1" d="M103.2,103.2h0c1.4-1.4,3.67-1.4,5.07,0l18.05,18.05c1.4,1.4,1.4,3.67,0,5.07h0c-1.4,1.4-3.67,1.4-5.07,0l-18.05-18.05c-1.4-1.4-1.4-3.67,0-5.07Z"/>
        <path class="cls-1" d="M21.67,21.67h0c1.4-1.4,3.67-1.4,5.07,0l18.05,18.05c1.4,1.4,1.4,3.67,0,5.07h0c-1.4,1.4-3.67,1.4-5.07,0L21.67,26.75c-1.4-1.4-1.4-3.67,0-5.07Z"/>
      </g>
    </g>
  </g>
</svg>